<?xml version="1.0" encoding="utf-8"?>
<!-- Generator: Adobe Illustrator 17.0.0, SVG Export Plug-In . SVG Version: 6.00 Build 0)  -->
<!DOCTYPE svg PUBLIC "-//W3C//DTD SVG 1.1//EN" "http://www.w3.org/Graphics/SVG/1.1/DTD/svg11.dtd">
<svg version="1.1" xmlns="http://www.w3.org/2000/svg" xmlns:xlink="http://www.w3.org/1999/xlink" x="0px" y="0px" width="16.75px"
	 height="20.79px" viewBox="0 0 16.75 20.79" enable-background="new 0 0 16.75 20.79" xml:space="preserve">
<g id="Layer_1" display="none">
</g>
<g id="Layer_2">
	<g>
		<g>
			<g>
				<path d="M15.386,8.053c0-3.866-3.134-7-7-7s-7,3.134-7,7c0,2.901,1.765,5.39,4.28,6.451l2.783,5.232l2.826-5.313
					C13.698,13.324,15.386,10.888,15.386,8.053z"/>
			</g>
			<g>
				
					<path fill="none" stroke="#000000" stroke-width="1.4404" stroke-linecap="round" stroke-linejoin="round" stroke-miterlimit="10" d="
					M15.386,8.053c0-3.866-3.134-7-7-7s-7,3.134-7,7c0,2.901,1.765,5.39,4.28,6.451l2.783,5.232l2.826-5.313
					C13.698,13.324,15.386,10.888,15.386,8.053z"/>
			</g>
		</g>
	</g>
	<circle fill="#FFFFFF" cx="8.449" cy="10.395" r="1.375"/>
</g>
</svg>
